<?xml version="1.0" standalone="no"?>
<!DOCTYPE svg PUBLIC "-//W3C//DTD SVG 20010904//EN"
 "http://www.w3.org/TR/2001/REC-SVG-20010904/DTD/svg10.dtd">
<svg version="1.0" xmlns="http://www.w3.org/2000/svg"
 width="344.000000pt" height="344.000000pt" viewBox="0 0 344.000000 344.000000"
 preserveAspectRatio="xMidYMid meet">

<g transform="translate(0.000000,344.000000) scale(0.100000,-0.100000)"
fill="#000000" stroke="none">
<path d="M902 3185 c-54 -69 -97 -252 -222 -948 -27 -153 -54 -286 -60 -297
-5 -10 -10 -25 -10 -33 0 -14 40 -37 65 -37 18 0 41 63 65 177 21 103 34 133
55 133 26 0 156 -30 176 -40 17 -10 19 -22 19 -138 0 -138 5 -152 50 -152 61
0 71 58 50 275 -5 50 -14 169 -20 265 -9 160 -24 309 -51 525 -5 44 -13 124
-18 178 -4 53 -10 99 -13 102 -2 3 -18 8 -35 11 -25 5 -34 1 -51 -21z m44
-520 c9 -104 20 -226 25 -270 4 -44 8 -97 8 -117 l1 -38 -45 0 c-24 0 -67 5
-95 11 -45 10 -50 13 -50 37 0 55 62 396 102 567 l22 90 7 -45 c5 -25 15 -130
25 -235z"/>
<path d="M1666 3061 c-3 -4 -8 -143 -11 -307 -5 -307 -8 -370 -26 -534 -18
-159 -44 -247 -84 -280 -24 -20 -91 3 -109 38 -23 45 -38 261 -45 647 -5 322
-8 364 -24 388 -20 30 -39 34 -57 12 -26 -31 -6 -915 24 -1022 31 -116 88
-174 170 -175 74 -2 130 51 167 157 43 124 58 242 69 565 5 151 12 322 16 380
6 92 4 108 -10 123 -18 18 -71 23 -80 8z"/>
<path d="M2493 3038 c-59 -67 -83 -221 -83 -543 0 -402 44 -589 153 -655 38
-24 116 -26 155 -6 116 61 162 223 162 574 0 352 -47 523 -165 603 -79 54
-186 67 -222 27z m152 -78 c20 0 73 -48 93 -84 17 -32 23 -112 37 -471 13
-316 -45 -513 -146 -503 -29 3 -37 10 -55 47 -47 97 -59 218 -59 581 0 315 1
337 20 375 20 41 59 69 83 60 8 -3 20 -5 27 -5z"/>
<path d="M1881 3033 c-45 -37 -3 -73 84 -73 l43 0 6 -72 c3 -40 10 -158 16
-263 6 -104 13 -224 16 -265 3 -41 9 -167 13 -279 8 -210 11 -220 53 -221 9 0
24 7 32 16 19 19 21 149 6 332 -29 351 -40 509 -42 617 l-3 120 53 -3 c57 -4
92 14 92 48 0 30 -22 37 -130 44 -58 3 -130 9 -160 12 -46 5 -60 3 -79 -13z"/>
<path d="M652 1771 c-69 -24 -136 -89 -156 -150 -21 -66 -22 -747 -2 -873 35
-206 83 -301 179 -350 52 -26 164 -22 223 9 79 40 108 127 51 148 -24 8 -38 4
-90 -23 -34 -18 -73 -32 -87 -32 -106 1 -174 164 -186 450 -9 212 9 608 29
647 36 69 103 94 187 69 80 -24 125 5 98 62 -29 60 -141 79 -246 43z"/>
<path d="M2840 1594 c-69 -63 -98 -211 -68 -346 7 -29 47 -122 90 -206 43 -84
86 -180 95 -215 28 -110 1 -266 -55 -322 -24 -24 -31 -26 -78 -20 -44 5 -54 3
-62 -12 -8 -13 -6 -25 6 -45 46 -78 186 -37 245 71 34 61 57 151 57 219 0 102
-28 189 -115 358 -100 195 -114 248 -91 343 21 82 43 108 91 103 37 -4 65 11
65 35 0 8 -13 28 -29 44 -44 43 -98 41 -151 -7z"/>
<path d="M1231 1583 c-5 -21 -14 -92 -20 -158 -19 -202 -92 -585 -180 -948 -8
-33 -6 -42 10 -58 34 -34 88 -19 104 30 3 10 14 69 24 130 10 62 20 113 22
115 2 2 40 -2 83 -8 93 -14 91 -10 104 -157 8 -89 13 -105 32 -121 32 -26 72
-20 87 13 10 21 8 49 -13 165 -13 76 -31 218 -39 314 -8 96 -22 225 -30 285
-9 61 -22 179 -29 263 -9 112 -16 156 -27 163 -7 5 -37 9 -66 9 -52 0 -52 0
-62 -37z m94 -468 c8 -88 15 -207 15 -264 l0 -103 -57 7 c-68 8 -83 14 -83 29
0 6 20 132 45 279 25 147 46 273 46 280 3 29 19 -81 34 -228z"/>
<path d="M1690 1613 c-35 -13 -40 -35 -40 -182 0 -80 5 -252 10 -381 5 -129
12 -325 16 -435 4 -110 11 -206 17 -213 5 -6 22 -12 37 -12 37 0 53 36 41 93
-24 106 -38 434 -22 502 l8 30 10 -40 c6 -22 21 -85 32 -140 43 -202 53 -242
77 -315 34 -106 58 -142 91 -138 14 2 32 12 39 23 11 17 8 33 -27 119 -41 100
-81 257 -114 437 l-17 97 41 84 c37 73 43 94 48 173 8 126 -7 192 -55 237 -20
19 -50 40 -67 46 -39 14 -106 22 -125 15z m99 -83 c4 0 14 -12 23 -28 26 -44
32 -136 14 -221 -16 -77 -51 -161 -67 -161 -5 0 -9 91 -9 211 0 188 2 210 16
205 9 -3 19 -6 23 -6z"/>
<path d="M2208 1589 l-26 -24 7 -550 c8 -580 10 -607 54 -619 42 -11 118 -6
149 10 41 21 123 98 148 139 51 82 61 138 70 375 10 271 1 345 -57 459 -65
128 -168 212 -277 227 -35 5 -46 2 -68 -17z m163 -102 c48 -32 85 -99 111
-197 19 -75 22 -111 22 -305 1 -201 -1 -227 -22 -300 -28 -97 -61 -150 -107
-172 -19 -9 -37 -15 -39 -12 -3 2 -10 130 -16 284 -6 154 -13 350 -17 435 -7
175 2 290 21 290 7 0 28 -10 47 -23z"/>
</g>
</svg>
