<?xml version="1.0" encoding="UTF-8"?>
<svg version="1.1" xmlns="http://www.w3.org/2000/svg" width="460" height="460">
<path d="M0 0 C151.8 0 303.6 0 460 0 C460 151.8 460 303.6 460 460 C308.2 460 156.4 460 0 460 C0 308.2 0 156.4 0 0 Z " fill="#0C0A09" transform="translate(0,0)"/>
<path d="M0 0 C8.59090731 3.15436021 15.02849281 8.59599251 18.921875 16.92578125 C24.3366116 31.24298184 24.73832528 45.1606502 24.64331055 60.29760742 C24.62501628 63.30981933 24.62280184 66.32172252 24.62304688 69.33398438 C24.55867763 107.00379922 24.55867763 107.00379922 13.94921875 119.296875 C9.86446314 123.22330674 6.07959295 124.00072485 0.5625 124.375 C-5.08446894 124.22086437 -8.02679386 122.83638762 -11.9453125 118.8203125 C-14.40526813 115.67109394 -16.08317537 112.44831156 -17.5625 108.75 C-18.119375 107.5125 -18.119375 107.5125 -18.6875 106.25 C-28.45245365 78.35013244 -28.18951811 32.50953044 -17.65234375 4.9140625 C-13.76144584 -2.81194984 -7.38567193 -2.24673382 0 0 Z " fill="#7FA235" transform="translate(313.5625,102.25)"/>
<path d="M0 0 C9.12424691 3.16741714 15.68294558 8.70318686 20.6875 16.8125 C21.07615234 17.43125 21.46480469 18.05 21.86523438 18.6875 C27.81289412 28.35371362 29.15475394 37.09066148 29.16796875 48.26171875 C29.17296135 49.74137871 29.17296135 49.74137871 29.17805481 51.25093079 C29.1831053 53.3345188 29.18546372 55.41811486 29.18530273 57.50170898 C29.18748068 60.65948131 29.20563305 63.81689915 29.22460938 66.97460938 C29.22754554 69.00781132 29.22952884 71.0410149 29.23046875 73.07421875 C29.23765427 74.00481613 29.24483978 74.93541351 29.25224304 75.89421082 C29.20352089 90.15879679 26.42071763 102.39218839 16.265625 112.79296875 C15.51796875 113.52128906 14.7703125 114.24960937 14 115 C13.47921875 115.57363281 12.9584375 116.14726562 12.421875 116.73828125 C8.46242734 120.43723893 3.96815191 120.50347267 -1.25 120.625 C-1.960354 120.64836426 -2.67070801 120.67172852 -3.40258789 120.69580078 C-5.453125 120.6640625 -5.453125 120.6640625 -9 120 C-12.50508606 115.85682842 -12.43597778 111.58835626 -12.41650391 106.40527344 C-12.42938194 105.12376152 -12.42938194 105.12376152 -12.44252014 103.81636047 C-12.46757293 100.99728121 -12.47196032 98.17855542 -12.4765625 95.359375 C-12.4908804 93.39266901 -12.50663883 91.42597302 -12.52377319 89.45928955 C-12.56563073 84.28096515 -12.59061516 79.10270268 -12.61126709 73.92425537 C-12.64706203 65.6505335 -12.70838476 57.37696545 -12.76975632 49.10340118 C-12.7887287 46.22255982 -12.80054604 43.34175922 -12.81118774 40.46087646 C-12.82141013 38.67801838 -12.83176889 36.89516107 -12.84228516 35.11230469 C-12.84332748 34.32030167 -12.84436981 33.52829865 -12.84544373 32.71229553 C-12.87880849 28.09911605 -13.19173251 23.60104751 -13.76695824 19.02299881 C-14.12783921 15.89024799 -14.20826104 12.77629143 -14.25 9.625 C-14.27578125 8.44164062 -14.3015625 7.25828125 -14.328125 6.0390625 C-14 3 -14 3 -12.80078125 1.1171875 C-8.92738104 -1.28583302 -4.35404201 -0.60979384 0 0 Z " fill="#F3F3F2" transform="translate(282,248)"/>
<path d="M0 0 C2.875 0.375 2.875 0.375 4.875 1.375 C4.92398438 2.46296875 4.97296875 3.5509375 5.0234375 4.671875 C5.39921363 12.30248459 5.95949955 19.7245679 7.33984375 27.25 C8.35333168 33.16817771 8.97249621 39.13960397 9.625 45.10644531 C9.78741422 46.58022745 9.95385376 48.05357354 10.125 49.52636719 C11.70370341 63.12418364 12.47756167 76.75148073 13.17773438 90.41748047 C13.2169249 91.16106812 13.25611542 91.90465576 13.29649353 92.67077637 C13.40371039 94.71315033 13.50679695 96.75573992 13.60961914 98.79833984 C13.81483307 102.30510367 13.81483307 102.30510367 14.39135742 105.45849609 C15.27855885 110.808576 15.10137027 116.21379091 15.125 121.625 C15.145625 122.82125 15.16625 124.0175 15.1875 125.25 C15.19523437 126.95929688 15.19523437 126.95929688 15.203125 128.703125 C15.21714355 130.26401855 15.21714355 130.26401855 15.23144531 131.85644531 C15.11381836 132.68756836 14.99619141 133.51869141 14.875 134.375 C11.20153229 136.82397847 9.21143601 136.69037716 4.875 136.375 C2.875 134.375 2.875 134.375 2.64794922 131.66943359 C2.65842285 130.54875488 2.66889648 129.42807617 2.6796875 128.2734375 C2.68613281 127.06171875 2.69257813 125.85 2.69921875 124.6015625 C2.71597656 123.33054687 2.73273438 122.05953125 2.75 120.75 C2.75902344 119.47125 2.76804688 118.1925 2.77734375 116.875 C2.80097697 113.70814833 2.83392371 110.54166576 2.875 107.375 C1.87339844 107.23191406 0.87179688 107.08882813 -0.16015625 106.94140625 C-1.48177083 106.75260417 -2.80338542 106.56380208 -4.125 106.375 C-5.36121094 106.19839844 -6.59742188 106.02179688 -7.87109375 105.83984375 C-11.2890625 105.3515625 -14.70703125 104.86328125 -18.125 104.375 C-18.29515625 105.37917969 -18.4653125 106.38335937 -18.640625 107.41796875 C-22.77461455 131.02461455 -22.77461455 131.02461455 -26.125 134.375 C-32.845 133.655 -32.845 133.655 -34.125 132.375 C-33.50440201 126.67609403 -32.34008776 121.06225 -31.25 115.4375 C-30.88792193 113.54949813 -30.52594352 111.66147715 -30.1640625 109.7734375 C-29.68028283 107.2579588 -29.19604095 104.74257425 -28.70996094 102.22753906 C-27.28524072 94.84354523 -25.96127559 87.45346984 -24.74658203 80.0324707 C-21.74048875 61.67520197 -18.48595466 43.38828042 -14.0625 25.3125 C-13.82934082 24.34376953 -13.59618164 23.37503906 -13.35595703 22.37695312 C-7.94760207 0.95371225 -7.94760207 0.95371225 0 0 Z " fill="#7FA135" transform="translate(145.125,86.625)"/>
<path d="M0 0 C2.27734375 -0.3984375 2.27734375 -0.3984375 4.9375 -0.375 C6.25041016 -0.38660156 6.25041016 -0.38660156 7.58984375 -0.3984375 C10.52582888 0.08692795 11.2118831 0.65592189 13 3 C13.49243164 5.53344727 13.49243164 5.53344727 13.66015625 8.56640625 C13.73041016 9.68345947 13.80066406 10.8005127 13.87304688 11.95141602 C13.93556641 13.14307373 13.99808594 14.33473145 14.0625 15.5625 C14.21763222 18.02098722 14.3751902 20.47932257 14.53515625 22.9375 C14.64947998 24.74541016 14.64947998 24.74541016 14.76611328 26.58984375 C15.07501116 31.09369096 15.49847764 35.57641455 16 40.0625 C16.144375 41.37347656 16.28875 42.68445313 16.4375 44.03515625 C16.80972117 46.96963549 17.3787622 49.82118343 18.0078125 52.7109375 C19.22776591 58.63086853 19.53185904 64.53866483 19.875 70.5625 C20.54320882 81.01138092 21.78564432 91.21614717 23.67919922 101.51391602 C24.83959985 108.01688022 25.51520614 114.3869062 25 121 C23.10511048 122.89488952 20.42860854 122.18019112 17.91015625 122.23046875 C16 122 16 122 14 120 C13.49755859 117.47802734 13.49755859 117.47802734 13.1484375 114.3359375 C13.01953125 113.21445312 12.890625 112.09296875 12.7578125 110.9375 C12.63148438 109.761875 12.50515625 108.58625 12.375 107.375 C12.17390625 105.59996094 12.17390625 105.59996094 11.96875 103.7890625 C11.63807653 100.86024037 11.31804133 97.93022077 11 95 C5.39 94.34 -0.22 93.68 -6 93 C-6.24234375 94.59070313 -6.4846875 96.18140625 -6.734375 97.8203125 C-7.07214604 99.921999 -7.41073055 102.02355487 -7.75 104.125 C-7.90726563 105.17171875 -8.06453125 106.2184375 -8.2265625 107.296875 C-9.19353613 113.17309934 -10.18633114 117.36911638 -14 122 C-20.875 121.125 -20.875 121.125 -22 120 C-22.47672375 113.16695953 -21.02694913 107.31788345 -19.25 100.75 C-16.61938629 90.64571749 -14.36298857 80.53555453 -12.42919922 70.27685547 C-12.01317328 68.06988283 -11.5878074 65.86490193 -11.16015625 63.66015625 C-9.01218409 52.47458797 -7.28339457 41.25097892 -5.78125 29.9609375 C-5.56901709 28.37630119 -5.35677745 26.79166578 -5.14453125 25.20703125 C-4.8182421 22.76951764 -4.49438083 20.33178934 -4.17724609 17.89306641 C-3.8648887 15.49801042 -3.54271822 13.10444679 -3.21875 10.7109375 C-3.12597778 9.97974701 -3.03320557 9.24855652 -2.93762207 8.49520874 C-2.45458353 4.98953728 -1.99880522 2.99820783 0 0 Z " fill="#F1F1F0" transform="translate(175,246)"/>
<path d="M0 0 C5.91035274 1.75820577 9.61841232 4.92761848 13 10 C14.75190361 15.02294041 15.32460622 19.65436794 15.25 24.9375 C15.23767334 25.99952637 15.23767334 25.99952637 15.22509766 27.08300781 C15.03299537 36.03538756 12.66114714 42.09424809 8.2421875 49.875 C5.04030818 57.93004232 7.93131994 66.43718541 9.75 74.5625 C10.02513428 75.81087646 10.30026855 77.05925293 10.58374023 78.34545898 C14.30396877 95.94394336 14.30396877 95.94394336 21.046875 112.53515625 C22.20703589 115.53540839 22.30095069 117.80903758 22 121 C20 123 20 123 17.1875 123.25 C12.85050827 121.54921893 12.08072852 119.50457685 10.2265625 115.34765625 C6.80644667 106.01313631 4.42375003 96.38074245 2.52905273 86.6328125 C1.3763735 80.89654446 0.00390983 75.2064322 -1.3203125 69.5078125 C-1.536875 68.56679688 -1.7534375 67.62578125 -1.9765625 66.65625 C-2.17330566 65.80869141 -2.37004883 64.96113281 -2.57275391 64.08789062 C-3 62 -3 62 -3 60 C-3.66 60 -4.32 60 -5 60 C-4.4252982 87.53303566 -4.4252982 87.53303566 -1.37890625 114.87890625 C-0.98453531 118.1273844 -1.19120308 119.34000454 -3 122 C-5.875 122.125 -5.875 122.125 -9 122 C-11.36884695 119.63115305 -11.27511958 119.07477348 -11.39477539 115.84619141 C-11.44981483 114.54714119 -11.44981483 114.54714119 -11.50596619 113.22184753 C-11.53622391 112.27465347 -11.56648163 111.32745941 -11.59765625 110.3515625 C-11.63657486 109.36444778 -11.67549347 108.37733307 -11.71559143 107.36030579 C-11.84085522 104.11548498 -11.95204779 100.87035621 -12.0625 97.625 C-12.14509001 95.37961724 -12.22826443 93.13425591 -12.31201172 90.88891602 C-12.51778122 85.28661442 -12.71055442 79.68396393 -12.89715576 74.08099365 C-12.99074066 71.27739019 -13.08690039 68.47389081 -13.18408203 65.67041016 C-13.53472664 55.44827036 -13.81124576 45.22641438 -14 35 C-14.0143811 34.25202148 -14.02876221 33.50404297 -14.0435791 32.73339844 C-14.12872881 28.18376533 -14.19331606 23.63454688 -14.23016357 19.08425903 C-14.24324623 17.66841393 -14.26108443 16.25260369 -14.28399658 14.83688354 C-14.31350666 12.90053927 -14.32136913 10.9639011 -14.328125 9.02734375 C-14.3374707 7.93156006 -14.34681641 6.83577637 -14.35644531 5.70678711 C-14 3 -14 3 -12.63061523 1.15039062 C-9.0280683 -1.39118763 -4.17594456 -0.50842553 0 0 Z " fill="#F1F1F0" transform="translate(229,247)"/>
<path d="M0 0 C4.26095213 0.60990099 6.4778231 2.69935235 9.2421875 5.84765625 C11.8425851 9.46963862 12.19155516 11.64168944 12.4921875 16.0703125 C12.6159375 17.82698242 12.6159375 17.82698242 12.7421875 19.61914062 C12.8659375 21.46475586 12.8659375 21.46475586 12.9921875 23.34765625 C13.58170768 32.56402299 13.58170768 32.56402299 14.5390625 41.74609375 C16.66363545 59.89069957 17.98549179 85.13939061 7.9921875 101.28515625 C5.55924707 104.34192756 4.23285788 105.98255372 0.4296875 106.91015625 C-3.23430073 105.97067209 -4.06408095 104.52470884 -6.0078125 101.28515625 C-13.25809921 84.33279506 -12.48597495 64.19157732 -12.39892578 46.19360352 C-12.38811551 43.52952605 -12.38534363 40.86725017 -12.39892578 38.20336914 C-12.417525 34.30206411 -12.41520546 30.40132957 -12.40625 26.5 C-12.41232269 25.32066391 -12.41839539 24.14132782 -12.4246521 22.92625427 C-12.36360583 15.70163265 -12.28552898 7.49544371 -7.64608765 1.53599548 C-5.25329669 -0.29092401 -2.91972797 -0.1229922 0 0 Z " fill="#0E0D09" transform="translate(313.0078125,111.71484375)"/>
<path d="M0 0 C1.91015625 0.23046875 1.91015625 0.23046875 3.91015625 2.23046875 C5.10993468 14.38736802 3.57533511 27.29342117 3.1105957 39.47900391 C2.97324278 43.09004866 2.84081587 46.70124991 2.70898438 50.3125 C2.46320546 56.95273236 2.19699418 63.59188451 1.91015625 70.23046875 C1.87415314 71.07383789 1.83815002 71.91720703 1.80105591 72.78613281 C1.42454227 81.17707163 0.67771792 89.2929351 -1.27734375 97.48046875 C-1.49801514 98.41431396 -1.71868652 99.34815918 -1.94604492 100.31030273 C-6.36902631 118.08416399 -6.36902631 118.08416399 -14.02734375 123.48046875 C-17.81139066 125.4121346 -20.83551652 125.86073945 -25.08984375 125.23046875 C-31.45095269 122.94046953 -34.75607065 118.84861595 -37.77734375 112.91796875 C-40.86998775 104.22911179 -41.46021428 95.96177831 -41.671875 86.7734375 C-41.70827591 85.46980759 -41.74467682 84.16617767 -41.78218079 82.82304382 C-41.87817244 79.33555251 -41.96191673 75.84788523 -42.04120636 72.35997772 C-42.08938902 70.25037818 -42.13984556 68.1408439 -42.19085693 66.03131104 C-42.39223411 57.61745167 -42.55922127 49.20337055 -42.70239258 40.78833008 C-42.75183492 37.90960409 -42.80764349 35.03109686 -42.8684082 32.15258789 C-42.94344747 28.59737917 -43.00858955 25.04212338 -43.06635475 21.48659325 C-43.10083417 19.51049247 -43.14512194 17.53457059 -43.18962097 15.55867004 C-43.20656509 14.37439926 -43.22350922 13.19012848 -43.2409668 11.9699707 C-43.26015671 10.93016556 -43.27934662 9.89036041 -43.29911804 8.81904602 C-43.08984375 6.23046875 -43.08984375 6.23046875 -41.08984375 3.23046875 C-38.77734375 3.41796875 -38.77734375 3.41796875 -36.08984375 4.23046875 C-33.1326634 8.08243022 -32.71029403 11.013323 -32.68920898 15.80224609 C-32.67587021 17.1148642 -32.66253143 18.4274823 -32.64878845 19.77987671 C-32.64865309 21.20871989 -32.6485366 22.63756307 -32.6484375 24.06640625 C-32.63664699 25.54791558 -32.62327871 27.02941311 -32.6084137 28.51089478 C-32.57224482 32.41448037 -32.55204858 36.31796173 -32.53686523 40.22167969 C-32.51205767 46.43247587 -32.47154992 52.64304088 -32.41496468 58.85362625 C-32.39893592 60.99967411 -32.39488394 63.14549582 -32.39195251 65.29159546 C-32.34826667 73.34801024 -31.74005892 81.11717685 -30.5397644 89.07116699 C-29.83143881 94.04496464 -29.79673709 98.96809934 -29.7265625 103.98828125 C-28.90842829 108.15424072 -27.40855197 109.65726745 -24.08984375 112.23046875 C-20.37983657 112.64878279 -20.37983657 112.64878279 -17.08984375 112.23046875 C-10.8617862 101.25722449 -10.27879124 89.09565771 -9.46484375 76.79296875 C-9.37145721 75.46774704 -9.37145721 75.46774704 -9.27618408 74.11575317 C-7.9642626 55.32177832 -7.59965946 36.51427374 -7.38037109 17.67993164 C-7.36659424 16.59011993 -7.35281738 15.50030823 -7.33862305 14.37747192 C-7.31389036 12.31809681 -7.29383427 10.25865881 -7.27905273 8.19918823 C-7.26346313 6.83879929 -7.26346313 6.83879929 -7.24755859 5.45092773 C-7.24106293 4.65605453 -7.23456726 3.86118134 -7.22787476 3.04222107 C-6.90900205 -1.14320356 -3.44712009 0.06881728 0 0 Z " fill="#7FA235" transform="translate(222.08984375,100.76953125)"/>
<path d="M0 0 C2.8125 2.125 2.8125 2.125 3.8125 4.125 C3.852492 6.12460012 3.85596799 8.12547242 3.8125 10.125 C0.55946956 11.75151522 -2.57975602 11.23953156 -6.1875 11.125 C-6.5175 10.795 -6.8475 10.465 -7.1875 10.125 C-12.82511801 9.50782919 -17.40811894 9.82495117 -22.1875 13.125 C-26.03690176 18.30178167 -26.32323542 22.93936639 -26.50390625 29.265625 C-26.52486862 29.97229813 -26.54583099 30.67897125 -26.56742859 31.40705872 C-26.63404456 33.72959032 -26.69295547 36.0522145 -26.75 38.375 C-26.77018188 39.17211395 -26.79036377 39.96922791 -26.81115723 40.79049683 C-26.95506774 46.5683308 -27.07567057 52.34646573 -27.1875 58.125 C-27.20294861 58.88331116 -27.21839722 59.64162231 -27.23431396 60.4229126 C-29.10189099 93.1234714 -29.10189099 93.1234714 -17.625 122.6875 C-14.72683349 125.58566651 -13.08359016 126.01746918 -9.0625 126.5 C-5.19385379 126.12561488 -3.8789834 125.52858448 -0.6875 123.5625 C2.36766894 121.70533395 4.22665949 120.74298567 7.8125 121.25 C10.8125 122.125 10.8125 122.125 11.8125 123.125 C11.50839708 128.39611727 10.77394066 131.55004135 6.8125 135.125 C-0.32923823 139.32763826 -8.03827157 140.47130557 -16.1875 139.125 C-23.21457862 136.10304572 -28.48558921 131.02500547 -31.52734375 124.0546875 C-38.82866169 104.79613873 -38.35631363 84.60162899 -38.31787109 64.30249023 C-38.31253811 60.96137903 -38.31783087 57.62040387 -38.32421875 54.27929688 C-38.3292773 44.14561626 -38.25422337 34.0138033 -37.8671875 23.88671875 C-37.84520294 23.08248978 -37.82321838 22.2782608 -37.80056763 21.44966125 C-37.52892508 15.6152263 -36.1688762 11.39681889 -32.2421875 6.89453125 C-23.66207182 -0.809121 -11.17673627 -6.1276973 0 0 Z " fill="#F4F4F3" transform="translate(136.1875,230.875)"/>
<path d="M0 0 C5.24481026 0.31786729 8.54543005 3.29984451 12 7 C14.51757909 10.66419927 15.88465664 14.24181335 17.125 18.5 C17.45757812 19.6034375 17.79015625 20.706875 18.1328125 21.84375 C20.59314195 32.07788252 20.18195626 43.04451029 20.1875 53.5 C20.19974609 54.71558594 20.21199219 55.93117188 20.22460938 57.18359375 C20.24543066 70.18995587 19.73588424 86.51693891 11 97 C5.84210526 101 5.84210526 101 2 101 C1.6005193 92.89590453 1.20900451 84.79147354 0.82654572 76.68655872 C0.64855744 72.91951495 0.46823629 69.15261915 0.28173828 65.38598633 C-0.4870201 49.82357337 -1.13496035 34.28293595 -1.15625 18.69921875 C-1.15894897 17.50077835 -1.16164795 16.30233795 -1.16442871 15.06758118 C-1.14287373 9.90570143 -0.9443458 5.08819464 0 0 Z " fill="#0E0C0B" transform="translate(281,257)"/>
<path d="M0 0 C1.20305786 0.01293091 1.20305786 0.01293091 2.43041992 0.02612305 C21.92639936 0.31577316 21.92639936 0.31577316 27.625 4.1875 C27.25 7.125 27.25 7.125 26.625 10.1875 C24.10024538 11.44987731 22.31299534 11.28606404 19.5 11.25 C18.58992188 11.24097656 17.67984375 11.23195313 16.7421875 11.22265625 C16.04351562 11.21105469 15.34484375 11.19945313 14.625 11.1875 C14.52823379 21.79952819 14.5321328 32.39600339 15 43 C15.0462854 44.17695435 15.0462854 44.17695435 15.09350586 45.37768555 C15.34742174 50.54943998 15.9171095 55.6497117 16.59375 60.78125 C17.59608049 68.43441135 18.19299941 76.07513973 18.63037109 83.77954102 C18.75059373 85.88539993 18.88061547 87.9904964 19.01171875 90.09570312 C19.25626809 94.12501448 19.44796458 98.15463322 19.625 102.1875 C19.68913086 103.43225098 19.75326172 104.67700195 19.81933594 105.95947266 C19.85575195 107.11366699 19.89216797 108.26786133 19.9296875 109.45703125 C19.96819824 110.46999268 20.00670898 111.4829541 20.04638672 112.52661133 C19.50474245 115.94687836 18.32443821 117.09179456 15.625 119.1875 C13 119.5625 13 119.5625 10.625 119.1875 C8.26768465 116.83018465 8.35414427 116.30844851 8.24609375 113.1027832 C8.21258316 112.25533035 8.17907257 111.4078775 8.14454651 110.53474426 C8.11747116 109.61191147 8.09039581 108.68907867 8.0625 107.73828125 C8.02636093 106.78261765 7.99022186 105.82695404 7.95298767 104.84233093 C7.87596062 102.79338637 7.8029779 100.74428659 7.73361206 98.69506836 C7.58826403 94.41932866 7.42368531 90.14448379 7.2532959 85.86967468 C7.1727819 83.84280988 7.0957307 81.81580332 7.02282715 79.78865051 C6.72350105 72.00331923 6.07142365 64.27237127 5.2956543 56.52133179 C3.7697317 41.16886854 3.92143346 25.6032447 3.625 10.1875 C2.51495605 10.19740967 1.40491211 10.20731934 0.26123047 10.2175293 C-4.34233967 10.17951136 -6.42497432 9.47851489 -10.375 7.1875 C-11.3125 4.5 -11.3125 4.5 -11.375 2.1875 C-7.54311262 -0.36709159 -4.43480188 -0.07446922 0 0 Z " fill="#7D9F34" transform="translate(247.375,102.8125)"/>
<path d="M0 0 C3 1.625 3 1.625 5 4 C5.375 7.1875 5.375 7.1875 5 10 C4.67 10.33 4.34 10.66 4 11 C2.00179568 10.9355418 0.00313413 10.86735528 -1.9921875 10.7421875 C-4.63389793 11.08139545 -5.37194096 11.93307287 -7 14 C-10.36762831 20.98471057 -11.36843718 27.89477296 -9.33276367 35.48925781 C-6.09472876 44.43166113 -1.5724282 52.58927111 3.04296875 60.88476562 C7.0023453 68.25290479 9.30630445 74.65325279 10 83 C10.0721875 83.86423584 10.144375 84.72847168 10.21875 85.61889648 C10.95062121 97.65841244 10.51099118 108.41369346 2.4375 118.0625 C1.633125 118.701875 0.82875 119.34125 0 120 C-0.5775 120.556875 -1.155 121.11375 -1.75 121.6875 C-5.2789305 123.74604279 -8.924966 124.72347984 -13 125 C-16.07870616 123.68991227 -17.65459016 122.34540984 -20 120 C-19.625 116.875 -19.625 116.875 -19 114 C-18.26394531 114.05800781 -17.52789062 114.11601562 -16.76953125 114.17578125 C-10.57000086 114.51174458 -10.57000086 114.51174458 -5 112.125 C0.96071391 102.81138451 1.21066685 91.7514078 0 81 C-2.19111194 71.3170558 -7.77940588 62.69130632 -12.6953125 54.1640625 C-19.41351707 42.32041919 -22.34019935 29.36012575 -19.27734375 15.80078125 C-16.12635627 6.44987509 -11.0491026 -1.71970469 0 0 Z " fill="#F3F3F2" transform="translate(346,245)"/>
<path d="M0 0 C0.33 0 0.66 0 1 0 C1.04487549 0.68288086 1.08975098 1.36576172 1.13598633 2.06933594 C2.28163874 19.19095194 2.28163874 19.19095194 4.5625 36.1875 C6.38587385 47.06914271 6.72867785 57.98522003 7 69 C5.26441136 69.02722195 3.52869708 69.04649592 1.79296875 69.0625 C0.82641357 69.07410156 -0.1401416 69.08570313 -1.13598633 69.09765625 C-5.01000211 68.96556126 -8.29849974 68.11743404 -12 67 C-12.13499547 61.29804859 -11.69319414 56.04390634 -10.6875 50.4375 C-10.55069824 49.65012451 -10.41389648 48.86274902 -10.27294922 48.05151367 C-8.25210454 36.5586846 -5.83720314 25.15467785 -3.375 13.75 C-3.15666504 12.73655518 -2.93833008 11.72311035 -2.71337891 10.67895508 C-2.50632324 9.72786865 -2.29926758 8.77678223 -2.0859375 7.796875 C-1.9007959 6.94448242 -1.7156543 6.09208984 -1.52490234 5.21386719 C-1 3 -1 3 0 0 Z " fill="#11110B" transform="translate(141,115)"/>
<path d="M0 0 C0.33 0 0.66 0 1 0 C5.06661675 20.50613128 5.29767089 41.16761721 5 62 C3.41705218 62.05437607 1.83355744 62.09296271 0.25 62.125 C-1.07257813 62.15980469 -1.07257813 62.15980469 -2.421875 62.1953125 C-5.1135858 61.99139502 -6.69904974 61.36551721 -9 60 C-9.14666024 54.68531215 -8.61862882 49.78925927 -7.6875 44.5625 C-7.55214844 43.77609131 -7.41679687 42.98968262 -7.27734375 42.17944336 C-6.17589438 35.83654831 -4.9677557 29.51512379 -3.76171875 23.19140625 C-2.33166191 15.4915316 -1.18629752 7.74038097 0 0 Z " fill="#151312" transform="translate(179,271)"/>
<path d="M0 0 C5 1 5 1 6.75 2.75 C10.62326115 9.72187008 10.37288556 20.51829922 8.45507812 28.17578125 C4.67807405 39.88128397 4.67807405 39.88128397 0 43 C0 28.81 0 14.62 0 0 Z " fill="#151312" transform="translate(225,254)"/>
<path d="M0 0 C0.33 0 0.66 0 1 0 C1.33 3.3 1.66 6.6 2 10 C1.01 10.495 1.01 10.495 0 11 C-0.66 11.99 -1.32 12.98 -2 14 C-1.33333333 9.33333333 -0.66666667 4.66666667 0 0 Z " fill="#3D3B3A" transform="translate(179,271)"/>
</svg>
