<svg width="1080" height="1080" viewBox="0 0 1080 1080" fill="none" xmlns="http://www.w3.org/2000/svg">
<path d="M524.952 337.442C524.952 440.964 441.017 524.884 337.476 524.884C233.936 524.884 150 440.964 150 337.442C150 233.92 233.936 150 337.476 150C441.017 150 524.952 233.92 524.952 337.442Z" fill="#F5F5F5"/>
<path d="M524.952 742.558C524.952 846.08 441.017 930 337.476 930C233.936 930 150 846.08 150 742.558C150 639.036 233.936 555.116 337.476 555.116C441.017 555.116 524.952 639.036 524.952 742.558Z" fill="#F5F5F5"/>
<path d="M930.141 337.442C930.141 440.964 846.206 524.884 742.665 524.884C639.124 524.884 555.189 440.964 555.189 337.442C555.189 233.92 639.124 150 742.665 150C846.206 150 930.141 233.92 930.141 337.442Z" fill="#F5F5F5"/>
<path d="M555.843 726.789C555.413 731.989 555.189 737.249 555.189 742.558C555.189 747.867 555.413 753.127 555.843 758.327C646.805 765.903 719.315 838.401 726.893 929.347C732.094 929.776 737.356 930 742.665 930C747.975 930 753.237 929.776 758.438 929.347C766.015 838.401 838.526 765.903 929.488 758.327C929.917 753.127 930.141 747.867 930.141 742.558C930.141 737.249 929.917 731.989 929.488 726.789C838.526 719.212 766.015 646.715 758.438 555.769C753.237 555.334 747.975 555.116 742.665 555.116C737.356 555.116 732.094 555.334 726.893 555.769C719.315 646.715 646.805 719.212 555.843 726.789Z" fill="#F5F5F5"/>
</svg>
